
<svg xmlns="http://www.w3.org/2000/svg" version="1.1" xmlns:xlink="http://www.w3.org/1999/xlink" preserveAspectRatio="none" x="0px" y="0px" width="200px" height="150px" viewBox="0 0 200 150">
<defs>
<g id="Layer4_0_FILL">
<path fill="#FFFFFF" stroke="none" d="
M 17.6 90.6
Q 17.95 92.4 18.45 96.1 19.05 100.15 20.85 108.15
L 22.5 115.4
Q 22.6 115.85 22.75 116.25 22.7 116.6 22.8 116.9 23.15 118.1 25.35 118.95 28.2 120 33.75 121.6 39.45 123.3 42.1 124.25 44.25 125 48.6 126.7 53.5 128.5 61.4 130.4 72.75 133.1 74.35 133.55 75.5 133.85 76.3 133.8 76.8 134.05 77.45 133.95 78.05 133.85 78.5 133.5 79 133.3 79.75 132.6 80.85 131.65 82.7 130.4 85.3 128.65 85.75 128.35 87.9 126.8 91.2 123.9
L 96.3 119.55
Q 97.25 118.7 97.45 118.15 97.45 118.1 97.5 118.05 98.15 117.35 98.75 116.65 99.9 115.3 99.8 114.3 99.65 113.2 98.45 112.55 97.6 112.2 96.25 112 92.35 111.35 86.2 109.9
L 82.4 109
Q 80.7 108.6 79.85 108.3 78.65 107.85 77.95 107.9 77.35 99.35 75.9 93.5 75.6 92.2 75.1 91.7 74.45 91.05 73.45 91.25 73 91.3 72.7 91.55 72.5 91.5 72.3 91.45 63.6 90.05 59.25 89.25 51.55 87.8 46.25 86.15 42.15 84.8 40.1 84.2 37.95 83.55 31.75 82.15 26.45 80.95 23.45 79.9 22.1 79.4 21.35 79.55
L 20.6 79.4
Q 19.7 79.15 18.9 79.1 18.05 79.1 17.7 79.2 16.55 79.6 16.4 80.75 16.3 81.25 16.4 81.65 15.9 82.55 16.15 84.3 16.5 86.4 17.6 90.6
M 21.25 83.65
Q 21.55 83.65 21.8 83.6 22.15 83.75 22.55 83.9 25.45 84.8 31.1 86.05 36.9 87.45 39.6 88.25 41.75 88.9 46.2 90.35 51.2 91.8 59.2 93.25 70.7 95.3 72.3 95.65 73.3 100.55 73.85 106.7 74.2 110.95 74.5 118.8
L 74.9 129.45
Q 74.75 129.4 74.6 129.35 65.95 127.4 61.65 126.35 54.1 124.5 48.9 122.55 44.9 120.95 42.85 120.25 40.7 119.45 34.6 117.75 29.4 116.25 26.45 115 26.4 115 26.35 114.95
L 26.35 114.9 20.1 83.5
Q 20.9 83.65 21.25 83.65
M 78.2 112.1
Q 78.55 112.2 78.95 112.3
L 85.75 113.9
Q 91.35 115.2 94.2 115.75
L 92.1 117.35
Q 91.15 118.1 90.85 118.65 90.75 118.9 90.7 119.15
L 90.4 119.4
Q 85.05 123.95 83.25 125.25 81.75 126.35 79 128.25 78.8 124.05 78.2 112.1 Z"/>
</g>

<g id="Layer3_0_FILL">
<path fill="#FFFFFF" stroke="none" d="
M 138.35 54.35
L 138.5 53.6
Q 138.55 52.95 138.15 52.35 137.75 51.75 137.1 51.5 136.45 51.3 135.8 51.6 135.1 51.9 134.8 52.45 134.6 52.8 134.5 53.25 134.1 54.85 134.2 58.15
L 134.25 59.2
Q 134.35 60.25 134.55 60.7 135.15 61.95 136.45 61.85 137.8 61.75 138.2 60.5 138.4 59.95 138.3 58.8 138 55.95 138.35 54.35
M 107.1 85.45
Q 106.15 85.05 105.25 85.65 104.4 86.3 104.5 87.3 104.5 88.1 105.4 89.3 107.1 91.55 109.15 93.45 111.35 95.5 114.45 97.5 114.4 97.95 114.55 98.4 114.55 98.45 114.6 98.5 113.75 98.9 113.45 99.45 113.2 99.95 113.2 100.4 113.2 101.3 113.85 101.95 114.55 102.55 115.45 102.4 115.85 102.35 116.5 102 117.25 101.65 117.55 101.55 117.6 101.5 118.35 101.4 119 101.3 119.5 101.05 119.85 101.15 120.25 101.25
L 125.8 102.15
Q 126.85 102.3 127.55 102.25 127.65 102.3 127.75 102.35 128.65 102.75 128.75 102.85
L 129.25 103.4
Q 129.3 103.5 129.7 103.75 130.8 104.35 131.75 103.9 132.85 103.45 132.95 102.3
L 132.9 101.65 132.75 101.15 131.8 100.15
Q 130.8 99.25 130.2 98.95 129.75 98.7 129.05 98.6 128.7 98.6 128.45 98.65
L 128.4 98.6
Q 128 98.35 126.95 98.25 124.5 98 122.6 97.6 122.35 97.35 121.95 97.15 121.8 97.1 121.2 96.95 120.95 96.55 120.45 96.25
L 118.35 95.25
Q 114.85 93.05 113.25 91.75 110.8 89.75 108.8 87.05 107.85 85.7 107.1 85.45
M 115.5 65.75
Q 115.35 65.55 115.35 65.05 115.3 64.4 114.9 63.9 114.45 63.4 113.85 63.25 113.25 63.1 112.65 63.35 112 63.65 111.7 64.15 111.2 64.9 111.4 66.05 111.55 67.2 112.25 68.15 112.95 69.15 113.95 69.55
L 115 69.85
Q 116.45 70.15 118.2 69.95 118.25 70.1 118.3 70.35 118.8 71.8 118.85 73.15
L 118.95 74.95
Q 118.95 76.05 119.15 76.75 119.6 78.3 120.95 79.4 122.25 80.5 123.9 80.8 124.9 81 125.65 80.75
L 125.7 80.75
Q 126.3 80.75 126.55 80.65 127.2 80.6 127.85 80.25
L 128.1 80.15
Q 128.65 80.05 129.5 79.6 133.15 77.55 134.85 75.5 137.15 72.8 137.05 69.9 137.9 69.6 138.75 69.25 139.65 68.95 140.05 68.5 140.9 67.65 140.55 66.5 140.1 65.3 138.9 65.2 138.15 65.1 136.75 65.7 132.55 67.5 128.5 67.05 127.65 66.95 127.3 66.65 127 66.4 126.8 65.9 126.5 65.15 126.4 65 125.8 64 124.7 64.05 124.65 64 124.55 63.95 123.45 63.35 122.4 64.1
L 121.8 64.6 121.1 65
Q 118.8 66 116.3 66 115.65 66 115.5 65.75
M 122.9 73.6
Q 122.9 71.8 122.1 68.9 122.4 68.8 122.7 68.65 123.15 68.5 123.5 68.35 124.35 69.8 125.9 70.5 126.5 70.8 127.8 71 130.2 71.35 132.9 70.95 132.75 71.5 132.4 72.1 131.85 73.05 130.9 73.8 129.75 74.9 128.3 75.7 127.8 75.75 127.35 76
L 126.9 76.3 125.95 76.7 125.35 76.75
Q 125.05 76.75 124.75 76.9 124.1 76.75 123.75 76.55 123.1 76.15 122.95 75.2 122.9 74.95 122.9 73.6
M 116.85 54.45
Q 117.1 52.5 116.85 51.9 116.6 51.3 116.05 50.95 115.45 50.6 114.8 50.65 114.15 50.75 113.6 51.2 113.1 51.7 113.05 52.35
L 112.9 53.85
Q 112.8 54.2 112.8 54.9
L 112.9 59.2
Q 113 59.85 113.5 60.3 114 60.7 114.65 60.75 115.3 60.85 115.85 60.45 116.4 60.1 116.65 59.5 116.85 59.05 116.85 58.05
L 116.85 54.45
M 167.1 42.15
Q 166.1 39.1 164.15 35.4 163.05 33.3 162.1 32.05 160.9 30.55 159 28.95 149.95 21.45 138.35 19.45 137.05 19.25 136.2 19.35 135.45 19.2 134.45 19.2 132.05 19.2 125.55 19.75 123.35 19.95 122.3 20.3 120.85 20.85 119.2 21.95 115.45 24.5 112.25 27.55 110.75 28.9 109.85 30.2 109.3 31 108.2 33.2 106.35 37.2 105.9 38.5 105.05 41.1 104.15 46.7
L 103.55 50.45
Q 102.55 56.65 102 60.75 101.2 60.85 100.4 61.6 100.35 61.65 99.15 63.3 98.25 64.7 95.6 67.75 94.75 68.85 94.65 69.25 94.4 70.55 95.4 71.3 96.45 72.1 97.55 71.4 97.75 71.3 98.5 70.55
L 100.95 67.55
Q 101.1 67.35 101.25 67.2 101.2 67.4 101.2 67.6 101.25 67.85 101.65 69.65
L 102 70.8 102.25 71.4
Q 102.6 72.4 103.3 72.8 103.8 73.15 104.5 73.05 105.2 72.95 105.65 72.5 106.7 71.45 106.1 70.15
L 105.9 69.7 105.4 67.95
Q 105.45 67.3 105.45 66.1 105.45 64.15 106.05 60.15
L 107.55 50.25
Q 108.5 43.75 109.6 40.15 111.3 34.55 114.35 31.1 116.2 29.05 121.1 25.55 122.8 24.4 123.75 24.1 124.5 23.85 125.65 23.75 126.3 23.7 127.55 23.65 128.8 23.6 131.25 23.3 133.4 23.1 134.9 23.35 136.6 23.7 137.15 23.55 137.25 23.5 137.35 23.5 144.45 24.25 150.75 28.05 152.45 29.1 154.8 30.8 157.4 32.6 158.5 33.95 159.2 34.75 160.4 36.9 161.8 39.4 162.35 40.75 164.3 45.15 164.75 52 164.95 55.9 165.15 63.7 165.25 65.45 165.85 66.15 166.5 66.85 167.55 66.75 168.65 66.65 169.05 65.8 169.35 65.15 169.25 63.8 168.9 56.5 168.75 52.85 168.4 46.3 167.1 42.15 Z"/>
</g>

<g id="Layer2_0_FILL">
<path fill="#FFFFFF" stroke="none" d="
M 101.2 69.75
L 99.45 69.75
Q 98.25 69.6 98.2 69.6
L 97.15 69.7
Q 93.7 70.3 92.15 71.55 91.4 72.25 90.75 73.2 89.2 75.7 89.65 77.65 89.7 77.85 89.8 78.1 89.05 78.1 88.6 78.15 84.9 78.45 83.05 80.1
L 82.15 81.1
Q 81.6 81.75 81.4 82.35 81 83 80.85 84.2 80.6 86.5 80.9 88.05
L 81.35 90
Q 81.75 91.7 82.15 95.1 82.3 95.7 83.15 98.6 83.8 100.7 83.85 102.1 83.85 103.15 84 103.65 84.25 104.45 84.9 104.8 85.15 105.05 85.45 105.25 86 105.55 87.25 105.55 90.2 105.5 96 104.8
L 98.65 104.5
Q 112.15 103 114.85 102.75 116.15 102.65 116.75 102.4 117.8 102.1 118.2 101.2 118.6 100.3 118.1 99.45 118.05 99.4 118.05 99.35 118.2 99.35 118.35 99.35 119.45 99.25 119.95 98.25 120.45 97.25 119.8 96.35 119.25 95.5 117.3 95 111.05 93.65 107.9 92.9 103.25 91.85 99.7 90.8 99.65 90.65 99.65 90.45 99.6 88.3 98.9 85 103.65 86.75 110.15 87.55 113 87.85 114.35 87.6 116.8 87.15 117.9 85.5 118.55 84.7 118.8 83.25 119.3 81.15 118.65 79.9 118.45 79.45 117.4 78.05
L 116.25 76.4
Q 115.5 75.55 114.8 75 111.1 71.85 106.35 70.45 103.7 69.75 101.2 69.75
M 100.3 81.15
Q 95.5 79.35 93.85 77.2 93.65 76.9 93.65 76.8 93.6 76.65 93.7 76.2 94.15 74.9 95.5 74.25 96.5 73.8 98.45 73.8
L 102.75 73.85
Q 104.5 74.05 106.6 74.8 110.6 76.2 113 78.9
L 114.65 81.05 114.95 81.65
Q 115 81.9 114.9 82.4 114.8 82.95 114.65 83.15 114.3 83.6 113.25 83.7 111.7 83.75 108.7 83.25 103.8 82.45 101.55 81.65
L 100.3 81.15
M 92.45 82.35
Q 92.8 82.6 93.3 83.3 93.6 83.65 94.3 84.2 94.6 84.5 94.9 85.6 95.6 88.9 95.6 90.55 95.6 90.65 95.6 90.75 95.15 91.15 95.05 91.85 94.9 93 95.8 93.75 96.15 94.05 97.25 94.35 106.2 96.8 114.5 98.5
L 115 98.65
Q 113.9 98.8 111.9 99
L 90.45 101.4
Q 88.85 101.55 87.85 101.5 87.7 100.05 87.15 98.1 86.1 94.35 85.95 93.6 85.65 91.1 85.4 89.85 85.05 88.3 84.9 87.5 84.65 86.15 84.8 85.15 84.95 84.45 85 84.1 85 84.05 85.05 84 85.35 83.65 85.75 83.05 86.45 82.45 88.3 82.25 90.1 82.05 91 82.05 92.05 82.05 92.45 82.35
M 92.05 23.7
Q 92.65 24.15 94.2 24.35 100.5 25.1 106.15 27.9 110.15 29.85 111.7 32.2 112.45 33.5 112.95 33.8 113.7 34.3 114.6 33.95 115.55 33.65 115.8 32.8 116.15 31.7 115.15 30.1 113.15 27.15 108.85 24.85 102.95 21.75 94.95 20.4 92.75 20.1 91.95 20.85 91.35 21.4 91.4 22.3 91.4 23.2 92.05 23.7
M 166.9 88.35
Q 166.75 87.7 166.2 87.25 165.7 86.8 165 86.8 164.35 86.75 163.75 87.2 163.2 87.65 163.05 88.3 162.95 88.65 163 89.45 163 90.2 162.9 90.55
L 162.65 91.25
Q 162.45 91.65 162.35 92.05
L 160.45 90.3 160 90
Q 158.65 89 157.75 88.5
L 157.65 88.4 157.65 88.35
Q 156.6 87.9 155.95 87.75 154.85 87.5 153.45 88 152.45 88.4 151.3 89.35 148.6 91.5 145.45 97.15 145.15 97.75 144.85 98.3 144.35 98 143.6 98 142.95 98 141.75 98.2 138.25 98.8 131.1 98.6 130.05 98.6 129.55 98.75 128.4 99.25 128.3 100.45 128.2 101.6 129.15 102.2 129.05 103.05 129.75 103.75 130.1 104.2 131.15 104.55 132 104.9 133.8 105.6 134.65 106.05 136.3 107
L 140.2 108.65
Q 143.7 110.6 145.75 111.4
L 148.1 112.25
Q 149.9 112.95 153.4 114.45 156.6 115.75 158.8 116.3 159 116.35 159.25 116.4 159.3 116.45 159.35 116.45 160.15 116.7 160.85 116.3 161.4 116 161.75 115.3 161.8 115.2 161.85 115.1 161.95 114.9 162.05 114.7 163.05 112.85 163.45 111.9 163.95 110.45 164.2 109.75
L 164.85 107.75
Q 164.9 107.9 165 108.05
L 165.3 106.65
Q 165.8 104.55 165.7 100.2 165.6 98.4 165.45 97.9 164.9 96.3 164.85 95.3 164.75 95.1 164.7 94.95 165.2 94.85 165.6 94.5 166.05 94.05 166.2 93.45
L 166.3 92.85 166.5 92.35
Q 166.9 91.2 166.95 91.1
L 166.9 88.35
M 154.35 92.05
Q 154.85 91.75 155.1 91.75 155.25 91.75 155.85 92 156.55 92.35 158 92.9 159.25 93.45 159.85 94.2 160.25 94.65 160.75 95.85 161.6 98.05 161.75 99.5 161.9 100.55 161.9 101.5 161.9 102.75 161.8 103.35 161.65 104.35 161.35 105.25
L 160.55 107.9
Q 159.85 110.35 159.15 111.6 159.05 111.8 158.85 112.15 158.7 112.1 158.55 112.05 156.95 111.65 154.55 110.65 151.15 109.15 150.65 108.95
L 148.2 108.05
Q 145.8 107.15 143.55 105.95 140.75 104.4 140 104.1
L 137.75 103.25 136.75 102.7
Q 140 102.55 142.85 102.2 142.65 102.7 142.65 103.1 142.6 103.7 142.95 104.25 143.3 104.75 143.85 105 145.1 105.5 146.05 104.55 146.35 104.25 146.75 103.35 148.55 99.7 150.15 97.05 152.35 93.45 154.35 92.05
M 178.3 70.3
Q 179.8 71.25 181.7 73.3 184.65 76.5 184.8 79.15 184.9 81.45 183.4 82.1 182.3 82.6 180.55 81.7 178.2 80.55 174.2 77.25
L 164 68.8
Q 162.05 67.3 160.9 67.7 160.15 67.95 159.85 68.8 159.55 69.65 159.9 70.35 160.15 70.85 161.2 71.8
L 171.2 80
Q 175.7 83.75 178.55 85.15 181.5 86.65 183.6 86.3 185.2 86.1 186.55 84.85 187.8 83.7 188.4 82.05 189.45 79.05 188 75.45 186.75 72.6 184.1 69.95 182.4 68.15 180.8 67.1 179.35 66.15 177.7 65.45 172.25 63.05 165.3 62.25 163.15 62.05 162.2 62.5 161.4 62.9 161.05 63.65 160.7 64.45 161.05 65.15 161.4 65.85 162.4 66.15 163 66.3 164.15 66.3 169 66.45 174.55 68.5 177.15 69.5 178.3 70.3
M 162.5 28.9
Q 164.4 28.9 165.4 29.35 165.9 29.6 166.8 30.15 167.6 30.55 168.2 30.45 168.85 30.4 169.25 29.8 169.7 29.25 169.65 28.55 169.65 27.35 168.4 26.35 167.6 25.75 165.95 25.4 159.35 23.9 151.85 27.45 149 28.85 147 30.55
L 145.4 32.15
Q 144.6 33.05 144.45 33.45 144.2 34.3 144.7 35.1 145.25 35.9 146.1 35.95 147.1 36.1 148.1 35.2 148.65 34.7 149.65 33.55 150.6 32.65 152.15 31.75 157 29 162.5 28.9 Z"/>
</g>

<g id="Layer1_0_FILL">
<path fill="#FFFFFF" stroke="none" d="
M 177 85
Q 177.05 84.6 177 84.15 176.9 83.5 175.65 82.15 174.4 80.9 172.3 78.5 169.95 75.85 168.95 74.8 168.05 74 167.65 73.85 166.4 73.45 165.55 74.35 165.15 74.7 165.05 75.35 164.9 75.9 165.15 76.45 165.4 77.05 166.15 77.7 167.45 79 169.65 81.55 171.35 83.5 172.4 84.6 171.6 84.65 171.2 84.9 170.25 85.4 170.25 86.55 170.15 87.65 171.15 88.2 171.65 88.55 173.2 88.65 175.2 88.65 176.65 89.05 177.3 89.2 179 89.85
L 180.7 90.55
Q 181.5 90.95 181.75 91.2 182.2 91.75 182.1 92.8 182.05 93.2 182.05 93.5 181.8 93.5 181.5 93.5 175.1 93.7 171.3 92.15 170.9 92 170.55 91.9 170.4 91.6 170.2 91.25
L 161.95 76.4
Q 161.35 75.3 160.9 74.9 160.2 74.1 159.35 74.1 158.7 74.05 158.1 74.5 157.55 75 157.45 75.65 157.3 76.5 158.25 78.2 158.5 78.6 158.8 79.1
L 158.85 79.1
Q 161.6 83.95 166.75 93.35 167.3 94.4 167.85 94.8 167.9 94.9 168 95 168.3 95.3 169.3 95.75 172.9 97.1 176.7 97.4 178.35 97.55 181.55 97.55 183.95 97.45 184.85 96.95 185.65 96.55 186.05 95.8 186.5 95 186.3 94.25 186.25 94 186.1 93.8 186.35 92.5 185.9 90.9 185.5 89.05 184.35 88.05 183.95 87.75 182.6 87.05 179.05 85.5 177 85 Z"/>
</g>

<g id="Layer0_0_FILL">
<path fill="#FFFFFF" stroke="none" d="
M 51.45 108.4
L 51.5 107.3
Q 51.5 105.3 51.1 104.45 50.7 103.5 49.7 102.55 49.1 102.05 48.85 102 48.55 101.9 47.95 101.9 47.8 101.9 47.65 101.9 47.5 101.9 47.3 101.9 46.8 101.9 46.55 102
L 45.75 102.35
Q 45.7 102.3 45.65 102.3 44.95 102.15 44.3 102.55 43.6 102.95 43.4 103.65
L 43.15 106.25
Q 43.15 108.25 43.6 109.1 44 109.8 44.6 110.4 45.5 111.4 46.1 111.7 46.95 112.15 48.35 112.15 48.95 112.15 49.35 111.95 50 111.7 50.6 110.7 51.2 109.6 51.45 108.4
M 89.8 52.15
Q 89.35 51.9 88.4 51.8
L 83.45 51.35
Q 80.75 51.05 79.45 50.75 77.7 50.4 77 50.65 76.75 50.75 76.5 50.95 75.9 51.1 75.5 51.65 74.9 52.4 74.9 53.95 74.85 56.6 75.15 58.3 75.5 60.05 76.35 60.6 77.15 61.05 78.85 60.8 82.75 60 86.7 58.3
L 88.5 57.55
Q 89.65 57.1 89.8 57 90.95 56.2 90.65 54.95 90.7 54.9 90.65 54.85 90.8 54.5 90.85 54.05 91 52.75 89.8 52.15
M 87.85 37.4
Q 86.8 37.2 86.1 37.85 85.75 37.9 85.4 38.05 84.85 38.3 84.55 38.8 84.3 39 84.1 39.75
L 83.5 40.85
Q 83.25 41.25 82.8 42.05 82.4 42.75 82.5 43.3 82.6 44.45 84.1 45.2 86.05 46.35 90.55 47.45 91.5 47.65 92.05 47.6 92.1 47.55 92.2 47.6 92.4 47.65 92.65 47.8 93.65 48.1 94.4 47.35 95.1 46.75 95.1 45.6 95.05 44.7 94.5 43.75 94.1 42.95 93.35 42.15
L 89.5 38.5
Q 88.55 37.6 87.85 37.4
M 170.85 91.8
L 168.9 92.3
Q 167.1 92.8 166.1 92.85 165.25 92.85 164.8 92.9 164.05 92.95 163.55 93.25 162.7 93.8 162.6 94.8 162.6 95.8 163.35 96.4 164.05 97 165.6 96.9 167.15 96.8 169.45 96.25 169.8 96.2 171.95 95.65 172.65 95.45 172.95 95.25 173.5 94.95 173.8 94.3 174.1 93.7 174 93.05 173.85 92.4 173.3 91.95 172.8 91.5 172.15 91.5 171.65 91.5 170.85 91.8
M 165.65 42.25
Q 165.1 42.85 165.2 43.8 165.35 44.7 166.1 45.15 166.8 45.6 168.6 45.75 169.85 46.15 171.6 48.3 172.4 49.4 172.8 50.1 173.25 50.9 173.6 52 175.05 56.1 175.95 61.05 176.4 63.7 176.35 65.35 176.3 66.95 176.3 67.3 176.4 68.45 177 69.05 177.55 69.7 178.55 69.6 179.55 69.55 180 68.8 180.35 68.25 180.35 66.85 180.25 62.7 179.85 60.15 179.4 57.35 177.8 51.95 177.2 50.05 176.8 49.1 176.1 47.65 174.8 45.9 173.5 44.2 172.5 43.4 170.75 42 168.35 41.6 166.6 41.3 165.65 42.25 Z"/>
</g>
</defs>

<g transform="matrix( 1, 0, 0, 1, 0,0) ">
<use xlink:href="#Layer4_0_FILL"/>
</g>

<g transform="matrix( 1, 0, 0, 1, 0,0) ">
<use xlink:href="#Layer3_0_FILL"/>
</g>

<g transform="matrix( 1, 0, 0, 1, 0,0) ">
<use xlink:href="#Layer2_0_FILL"/>
</g>

<g transform="matrix( 1, 0, 0, 1, 0,0) ">
<use xlink:href="#Layer1_0_FILL"/>
</g>

<g transform="matrix( 1, 0, 0, 1, 0,0) ">
<use xlink:href="#Layer0_0_FILL"/>
</g>
</svg>
